<mxfile host="app.diagrams.net" modified="2022-08-26T08:18:04.742Z" agent="5.0 (Windows NT 10.0; Win64; x64) AppleWebKit/537.36 (KHTML, like Gecko) Chrome/104.0.0.0 Safari/537.36" etag="gTqhU_FePwvEba5ZmOAs" version="20.2.7" type="github">
  <diagram id="y9nf2ARWb-sfy7mG5ZyN" name="Page-1">
    <mxGraphModel dx="1422" dy="800" grid="1" gridSize="10" guides="1" tooltips="1" connect="1" arrows="1" fold="1" page="1" pageScale="1" pageWidth="850" pageHeight="1100" math="0" shadow="0">
      <root>
        <mxCell id="0" />
        <mxCell id="1" parent="0" />
        <mxCell id="A0Xx8H9YjNZ_wXPYEJ4_-13" style="edgeStyle=orthogonalEdgeStyle;rounded=0;orthogonalLoop=1;jettySize=auto;html=1;entryX=0.75;entryY=0;entryDx=0;entryDy=0;" edge="1" parent="1" source="A0Xx8H9YjNZ_wXPYEJ4_-1" target="A0Xx8H9YjNZ_wXPYEJ4_-2">
          <mxGeometry relative="1" as="geometry" />
        </mxCell>
        <mxCell id="A0Xx8H9YjNZ_wXPYEJ4_-1" value="Simple loginas to access your data&lt;br&gt;" style="rounded=0;whiteSpace=wrap;html=1;" vertex="1" parent="1">
          <mxGeometry x="200" y="60" width="270" height="60" as="geometry" />
        </mxCell>
        <mxCell id="A0Xx8H9YjNZ_wXPYEJ4_-4" style="edgeStyle=orthogonalEdgeStyle;rounded=0;orthogonalLoop=1;jettySize=auto;html=1;entryX=0;entryY=0.5;entryDx=0;entryDy=0;" edge="1" parent="1" source="A0Xx8H9YjNZ_wXPYEJ4_-2" target="A0Xx8H9YjNZ_wXPYEJ4_-3">
          <mxGeometry relative="1" as="geometry" />
        </mxCell>
        <mxCell id="A0Xx8H9YjNZ_wXPYEJ4_-2" value="Form to enter your predictions" style="whiteSpace=wrap;html=1;" vertex="1" parent="1">
          <mxGeometry x="50" y="180" width="290" height="100" as="geometry" />
        </mxCell>
        <mxCell id="A0Xx8H9YjNZ_wXPYEJ4_-5" style="edgeStyle=orthogonalEdgeStyle;rounded=0;orthogonalLoop=1;jettySize=auto;html=1;entryX=0.5;entryY=0;entryDx=0;entryDy=0;" edge="1" parent="1" source="A0Xx8H9YjNZ_wXPYEJ4_-3" target="A0Xx8H9YjNZ_wXPYEJ4_-6">
          <mxGeometry relative="1" as="geometry">
            <mxPoint x="595" y="380" as="targetPoint" />
            <Array as="points">
              <mxPoint x="600" y="300" />
              <mxPoint x="600" y="300" />
            </Array>
          </mxGeometry>
        </mxCell>
        <mxCell id="A0Xx8H9YjNZ_wXPYEJ4_-3" value="Save to database" style="whiteSpace=wrap;html=1;" vertex="1" parent="1">
          <mxGeometry x="470" y="180" width="250" height="100" as="geometry" />
        </mxCell>
        <mxCell id="A0Xx8H9YjNZ_wXPYEJ4_-12" style="edgeStyle=orthogonalEdgeStyle;rounded=0;orthogonalLoop=1;jettySize=auto;html=1;entryX=1;entryY=0.5;entryDx=0;entryDy=0;" edge="1" parent="1" source="A0Xx8H9YjNZ_wXPYEJ4_-6" target="A0Xx8H9YjNZ_wXPYEJ4_-11">
          <mxGeometry relative="1" as="geometry" />
        </mxCell>
        <mxCell id="A0Xx8H9YjNZ_wXPYEJ4_-6" value="Main DB with corrects&lt;br&gt;" style="whiteSpace=wrap;html=1;" vertex="1" parent="1">
          <mxGeometry x="480" y="365" width="240" height="90" as="geometry" />
        </mxCell>
        <mxCell id="A0Xx8H9YjNZ_wXPYEJ4_-9" style="edgeStyle=orthogonalEdgeStyle;rounded=0;orthogonalLoop=1;jettySize=auto;html=1;" edge="1" parent="1" source="A0Xx8H9YjNZ_wXPYEJ4_-7" target="A0Xx8H9YjNZ_wXPYEJ4_-6">
          <mxGeometry relative="1" as="geometry" />
        </mxCell>
        <mxCell id="A0Xx8H9YjNZ_wXPYEJ4_-7" value="Upload correct results" style="whiteSpace=wrap;html=1;" vertex="1" parent="1">
          <mxGeometry x="490" y="550" width="220" height="60" as="geometry" />
        </mxCell>
        <mxCell id="A0Xx8H9YjNZ_wXPYEJ4_-11" value="Results table" style="rounded=0;whiteSpace=wrap;html=1;" vertex="1" parent="1">
          <mxGeometry x="50" y="380" width="370" height="60" as="geometry" />
        </mxCell>
        <mxCell id="A0Xx8H9YjNZ_wXPYEJ4_-16" style="edgeStyle=orthogonalEdgeStyle;rounded=0;orthogonalLoop=1;jettySize=auto;html=1;entryX=1;entryY=0.5;entryDx=0;entryDy=0;" edge="1" parent="1" source="A0Xx8H9YjNZ_wXPYEJ4_-14" target="A0Xx8H9YjNZ_wXPYEJ4_-6">
          <mxGeometry relative="1" as="geometry" />
        </mxCell>
        <mxCell id="A0Xx8H9YjNZ_wXPYEJ4_-14" value="GAME_ID," style="whiteSpace=wrap;html=1;" vertex="1" parent="1">
          <mxGeometry x="790" y="365" width="310" height="90" as="geometry" />
        </mxCell>
      </root>
    </mxGraphModel>
  </diagram>
</mxfile>
